<?xml version="1.0" encoding="utf-8"?>
<!-- Generator: Adobe Illustrator 15.0.0, SVG Export Plug-In . SVG Version: 6.00 Build 0)  -->
<!DOCTYPE svg PUBLIC "-//W3C//DTD SVG 1.1//EN" "http://www.w3.org/Graphics/SVG/1.1/DTD/svg11.dtd">
<svg version="1.1" id="Layer_4" xmlns="http://www.w3.org/2000/svg" xmlns:xlink="http://www.w3.org/1999/xlink" x="0px" y="0px"
	 width="1280px" height="720px" viewBox="0 0 1280 720" enable-background="new 0 0 1280 720" xml:space="preserve">
<g>
	<g>
		<path d="M403.303,376.837c5.173,13.715,18.959,50.496,17.133,53.32c-14.043,21.722-51.427,29.645-57.298,30.12
			c-4.815,0.392-20.959-32.331-28.074-48.918c-8.525-19.874-15.276-51.879-13.292-55.647c1.984-3.768,52.398-24.281,58.412-21.75
			C384.304,335.695,396.736,359.433,403.303,376.837z"/>
		<path d="M449.164,291.714c9.713-4.343,44.015-15.549,77.222-23.128c31.871-7.272,56.122-12.584,61.963-12.156
			c9.004,0.661,13.607,10.637,7.189,16.202c-3.732,3.237-11.229,7.203-25.914,10.52c-14.687,3.316-13.139,6.232-30.81,12.321
			c-2.606,0.898-9.586,3.812-9.61,4.719c-0.022,0.831,3.635,0.827,3.889,4.896c0,0,13.971,1.007,15.016,16.229
			c0.796,11.591-8.207,17.065-8.603,18.28c-0.395,1.214,5.597,8.58,4.176,16.274c-1.48,8-17.615,14.12-18.387,15.604
			c-0.773,1.482,2.726,7.023-2.78,15.052c-5.504,8.03-28.045,9.418-29.781,10.15c-1.735,0.734-19.621,13.344-40.886,20.82
			c-23.989,8.436-59.07,6.248-59.07,6.248l-25.041-67.417c0,0,20.615-19.161,32.36-30.59
			C412.346,313.82,434.593,298.227,449.164,291.714z"/>
	</g>
	<g>
		<path fill="#FFFFFF" d="M396.566,385.55c-4.665-13.785-13.608-30.875-2.131-46.538c11.479-15.664,38.114-37.318,59.602-45.641
			c21.488-8.322,42.679-14.258,53.513-16.817c10.835-2.56,49.35-11.281,59.285-13.156c9.933-1.875,20.74-6.44,25.53-2.23
			c4.789,4.211,2.592,9.132-4.499,12.771c-7.091,3.637-20.488,6.898-21.741,6.342c-3.49-1.552-3.965-9.565-5.092-10.518
			c-2.115-1.788-0.393,7.816,0.599,11.863c0.616,2.514-19.486,9.963-22.429,9.607c-6.092-0.739-5.309-12.511-6.771-12.31
			c-3.197,0.438,1.552,11.266,0.796,13.678c-0.755,2.413-6.305,5.125-8.229,5.355c-9.013,1.079-30.532-6.947-35.85-6.1
			c-27.749,4.43-44.425,9.288-46.943,12.838c-2.582,3.64,9.145-6.196,23.432-4.563c3.853,0.44,21.766-5.174,27.021-4.744
			s17.815,2.484,17.545,3.466c-0.274,0.994-12.124,7.305-1.546,13.13c9.544,5.254,13.169,2.928,13.36,2.146
			c0.48-1.981,3.15-8.191,6.547-9.115c1.674-0.456,2.078-0.118,2.222,3.087c0.155,3.445-2.916,7.912-8.854,10.758
			c-5.939,2.845-29.089,1.202-34.618-0.639c-8.618-2.871-8.606-10.943-9.615-10.511c-1.007,0.432-0.586,3.46-0.167,5.334
			c0.571,2.56,1.271,5.416-2.156,8.464c-3.577,3.184-9.995,5.915-12.083,6.588c-4.929,1.588-10.523,3.002-15.301,2.354
			c-3.673-0.5-7.065-4.481-7.831-4.357c-1.312,0.213,2.55,5.373,6.182,6.644c5.502,1.924,12.26,2.418,7.184,10.93
			c-5.653,9.479-22.665,31.024-35.647,33.477c-1.306,0.245-1.324,1.666,0.492,1.514c1.815-0.153,14.773,0.089,27.046-12.23
			c12.274-12.319,15.062-11.479,17.334-10.571c2.27,0.906,7.15,7.961,5.148,9.742c-3.508,3.12-10.617,14.667,0.202,23.817
			c2.459,2.08,7.063,3.601,6.119,6.515c-0.945,2.913-9.343,13.316-21.354,17.841c-12.011,4.525-22.946,6.083-28.886,5.025
			C418.041,417.736,407.539,417.968,396.566,385.55z"/>
		<path fill="#FFFFFF" d="M512.806,300.015c0,0-6.805,3.461-5.83,7.525c0.976,4.064,11.46,6.41,12.409,5.901
			c1.045-0.562,1.285-3.703,3.392-6.129c1.896-2.181,4.486-3.853,4.739-4.488C527.875,301.926,516.917,299.149,512.806,300.015z"/>
	</g>
	<path fill="#FFFFFF" d="M519.708,372.117c-14.411,3.202-29.277,1.58-40.212-3.795c-12.149-5.838-16.182,7.751-12.63,14.712
		c6.81,13.347,32.312,12.215,45.547,7.646C525.521,386.156,521.9,371.631,519.708,372.117z M480.708,384.637
		c-3.007,1.442-9.411,0.478-10.814-1.499c-4.588-6.46,1.802-13.79,4.828-13.686c1.173,0.04,6.021,1.578,8.031,3.662
		C486.224,376.71,484.2,382.965,480.708,384.637z M479.562,382.843c-2.244,1.075-7.022,0.354-8.069-1.118
		c-3.422-4.819,1.346-10.287,3.603-10.21c0.875,0.03,4.491,1.178,5.99,2.731C483.677,376.93,482.167,381.596,479.562,382.843z"/>
	<path fill="#FFFFFF" d="M534.351,343.55c-4.774,1.627-16.38,7.94-27.828,7.415c-7.791-0.357-19.788-3.659-24.286-5.409
		c-11.366-4.42-16.54,9.526-11.99,15.509c2.01,2.646,23.412,12.499,44.572,9.467c17.475-2.504,23.928-11.289,25.12-15.091
		C541.128,351.638,537.907,342.339,534.351,343.55z M490.854,357.363c-1.531,8.662-13.627,6.076-16.096,4.644
		c-5.241-3.038-0.669-15.863,3.425-15.358C480.611,346.239,492.177,349.896,490.854,357.363z M488.483,356.829
		c-1.163,6.577-10.353,4.615-12.229,3.526c-3.981-2.309-0.507-12.053,2.603-11.668C480.7,348.377,489.487,351.155,488.483,356.829z"
		/>
	<g>
		<path fill="#FFFFFF" stroke="#000000" d="M326.148,358c4.686-6.089,46.158-20.368,48.06-18.558
			c3.253,3.094-0.098,10.898,13.244,49.382c6.9,19.908,15.281,34.813,24.155,42.787c2.197,1.974-9.979,10.021-15.85,12.632
			c-12.095,5.384-29.21,11.654-31.174,10.748c-1.965-0.907-17.138-23.577-26.268-47.067
			C330.179,386.988,323.989,360.808,326.148,358z"/>
		<path d="M392.717,426.594c6.217-3.155,11.64,7.682,4.875,10.583S386.731,429.633,392.717,426.594z"/>
	</g>
	<g>
		<path fill="#FFFFFF" d="M533.274,310.527c-0.082,3.895-6.829,13.861-24.89,13.153c-14.984-0.589-20.867-3.684-25.883-3.11
			c-5.588,0.468-11.552,8.055-8.143,16.414c2.869,7.027,22.422,9.892,32.411,10.693s19.426-3.772,23.362-5.637
			c2.234-1.058,15.935-6.847,14.23-19.178C542.659,310.53,533.311,308.862,533.274,310.527z M495.745,335.27
			c-2.39,6.285-10.585,5.089-14.924,3.968c-4.191-1.185-4.933-4.27-4.851-8.163c0.076-3.471,3.389-8.461,5.907-8.946
			C484.077,321.706,499.969,324.157,495.745,335.27z"/>
		<path fill="#FFFFFF" d="M493.763,334.903c-1.327,3.725-8.657,3.281-12.162,2.377c-3.382-0.956-3.647-2.918-3.58-6.062
			c0.061-2.803,2.399-6.687,4.434-7.077C484.231,323.798,497.259,325.089,493.763,334.903z"/>
	</g>
</g>
</svg>
