<?xml version="1.0" encoding="utf-8"?>
<!-- Generator: Adobe Illustrator 15.0.0, SVG Export Plug-In . SVG Version: 6.00 Build 0)  -->
<!DOCTYPE svg PUBLIC "-//W3C//DTD SVG 1.1//EN" "http://www.w3.org/Graphics/SVG/1.1/DTD/svg11.dtd">
<svg version="1.1" id="Layer_1" xmlns="http://www.w3.org/2000/svg" xmlns:xlink="http://www.w3.org/1999/xlink" x="0px" y="0px"
	 width="43.167px" height="53.167px" viewBox="0 0 43.167 53.167" enable-background="new 0 0 43.167 53.167" xml:space="preserve">
<g id="Layer_4">
	<g>
		<polygon fill="#E08B10" points="38.13,38.607 38.13,33.389 33.089,27.175 33.089,10.995 28.751,5.25 21.014,5.25 6.943,27.821 
			6.943,33.682 10.695,38.607 16.499,38.607 16.499,44.292 20.251,49.216 36.492,49.216 36.492,44.292 33.089,39.779 33.089,38.607 
					"/>
		<path d="M33.089,10.995v16.18l5.041,6.214v5.217h-5.041v1.172l3.4,4.517v4.924H20.25l-3.752-4.924v-5.688h-5.804l-3.752-4.924
			v-5.863l14.07-22.57h7.739L33.089,10.995z M7.999,32.626h13.132v2.285c0,2.697-0.47,4.396-1.935,4.689l-1.642,0.293v3.342h13.951
			v-3.342l-1.815-0.293c-1.524-0.293-1.994-1.992-1.994-4.689v-2.285h5.043v-4.397h-5.043V6.304h-6.037L7.999,28.229V32.626z
			 M26.701,7.301v16.824c-0.587-0.469-1.349-0.469-2.171,0c0.296,0.762,0.998,1.994,1.818,2.873c-0.82,1.935-1.522,4.63-1.937,9.615
			c-0.352-4.984-1.055-7.68-1.875-9.615c0.82-0.879,1.523-2.111,1.758-2.873c-0.819-0.469-1.522-0.469-2.108,0v-8.969
			c0-0.88-0.293-1.407-0.762-1.407c-0.587,0-0.939,0.527-1.466,1.349l-5.628,9.027c-0.586-0.469-1.466-0.469-2.403,0L22.479,7.301
			H26.701z M13.04,28.229l8.091-13.013v13.013H13.04z M24.53,24.067c0.296-2.052,0.998-3.225,1.818-4.104
			c-0.82-1.406-1.522-3.518-1.937-7.914c-0.352,4.396-1.055,6.508-1.875,7.914c0.82,0.879,1.523,2.052,1.758,4.104H24.53z"/>
	</g>
</g>
</svg>
