<?xml version="1.0" encoding="utf-8"?>
<!-- Generator: Adobe Illustrator 15.0.0, SVG Export Plug-In . SVG Version: 6.00 Build 0)  -->
<!DOCTYPE svg PUBLIC "-//W3C//DTD SVG 1.1//EN" "http://www.w3.org/Graphics/SVG/1.1/DTD/svg11.dtd">
<svg version="1.1" id="Layer_1" xmlns="http://www.w3.org/2000/svg" xmlns:xlink="http://www.w3.org/1999/xlink" x="0px" y="0px"
	 width="43.167px" height="53.167px" viewBox="0 0 43.167 53.167" enable-background="new 0 0 43.167 53.167" xml:space="preserve">
<g id="Layer_6">
	<g>
		<path fill="#E08B10" d="M31.917,25.24c2.696-0.646,4.748-3.752,4.748-7.445c0-7.738-7.271-13.249-14.304-13.249
			c-9.498,0-14.773,8.091-14.773,21.573c0,14.481,7.621,23.097,16.766,23.097c6.742,0,13.133-3.928,13.133-11.606
			C37.487,31.982,35.083,28.171,31.917,25.24z M22.596,36.438c-0.881,0-1.115-1.701-1.115-2.64c0-1.698,0.234-2.932,1.231-2.932
			c0.82,0,1.113,1.232,1.113,2.053C23.828,34.501,23.125,36.438,22.596,36.438z"/>
		<path d="M36.666,17.794c0,3.693-2.052,6.8-4.748,7.445c3.166,2.93,5.569,6.741,5.569,12.37c0,7.68-6.391,11.607-13.133,11.607
			c-9.145,0-16.766-8.617-16.766-23.097c0-13.484,5.275-21.574,14.773-21.574C29.395,4.545,36.666,10.056,36.666,17.794z
			 M32.091,31.218c0-7.385-4.981-10.668-9.612-10.668c-2.99,0-5.043,1.291-6.273,3.166c-0.527-6.742,1.816-14.422,6.859-14.422
			c2.694,0,4.045,1.35,4.045,2.111c0,0.703-0.702,1.289-1.584,1.406c-1.229,0.176-2.637,1.114-2.637,3.049s1.641,3.459,3.985,3.4
			c2.638-0.059,4.396-2.697,4.396-6.215c0-5.627-4.279-7.504-8.91-7.504c-8.854,0-13.719,8.149-13.719,20.344
			c0,10.083,3.752,17.351,11.783,17.351C26.583,43.236,32.091,40.482,32.091,31.218z M30.276,13.045c0,3.107-1.877,5.16-3.399,5.16
			c-1.76,0-2.933-1.115-2.933-2.346c0-0.996,0.703-1.935,2.109-2.169c1.174-0.293,2.053-0.997,2.053-2.345
			c0-1.583-2.053-3.107-5.041-3.107c-6.039,0-8.619,9.146-7.914,15.535c-0.881-0.469-1.76-0.469-2.639,0
			c0.117,1.173,0.703,2.463,1.816,3.693c-0.645,2.931-0.645,5.863-0.352,8.793c-1.582-2.813-2.695-5.629-3.342-8.383
			c0.529-1.407,0.998-2.696,1.525-4.104c-0.938-0.469-1.818-0.469-2.404,0c0.703-9.379,4.104-17.177,12.605-17.177
			C27.873,6.597,30.276,9.118,30.276,13.045z M12.512,23.715c0.059-1.348,0.703-2.696,1.816-3.986
			c-0.41-2.639-0.117-5.334,0.705-8.031c-1.525,2.697-2.873,5.275-3.988,7.973c0.529,1.349,0.705,2.639,1.115,4.045L12.512,23.715
			L12.512,23.715z M25.117,31.805c0,4.573-1.582,6.685-4.222,6.685c-2.639,0-4.221-2.109-4.221-6.685
			c0-4.572,1.582-6.682,4.221-6.682C23.535,25.123,25.117,27.233,25.117,31.805z M22.244,21.488c2.756,0,4.69,0.938,5.862,2.286
			c-1.405-0.762-2.403-0.82-2.873-0.293c1.937,1.113,3.343,2.346,4.69,3.459c-0.059,2.755-0.821,6.332-2.579,9.908
			c0.645-3.986,0.352-7.271-1.585-9.38c0.529-0.879,0.06-2.755-0.879-3.986c-0.996-0.703-2.756-0.703-3.399,0.059
			c-0.996-0.645-2.578-0.762-3.986,0.059C18.727,22.133,20.485,21.488,22.244,21.488z M21.481,33.798c0,0.938,0.234,2.64,1.115,2.64
			c0.526,0,1.229-1.937,1.229-3.519c0-0.821-0.293-2.053-1.113-2.053C21.715,30.867,21.481,32.098,21.481,33.798z"/>
	</g>
</g>
</svg>
