<?xml version="1.0" encoding="utf-8"?>
<!-- Generator: Adobe Illustrator 15.0.0, SVG Export Plug-In . SVG Version: 6.00 Build 0)  -->
<!DOCTYPE svg PUBLIC "-//W3C//DTD SVG 1.1//EN" "http://www.w3.org/Graphics/SVG/1.1/DTD/svg11.dtd">
<svg version="1.1" id="Layer_1" xmlns="http://www.w3.org/2000/svg" xmlns:xlink="http://www.w3.org/1999/xlink" x="0px" y="0px"
	 width="43.167px" height="53.167px" viewBox="0 0 43.167 53.167" enable-background="new 0 0 43.167 53.167" xml:space="preserve">
<g id="Layer_0">
	<g>
		<path fill="#E08B10" d="M20.368,4.545c-6.155,0-13.542,5.687-13.542,19.698c0,16.649,8.911,24.973,17.292,24.973
			c7.621,0,14.129-5.568,14.129-20.928C38.25,14.511,31.625,4.545,20.368,4.545z M22.303,36.789c-0.469,0-0.762-1.582-0.762-12.544
			c0-8.09,0.352-8.97,1.23-8.97c0.645,0,0.762,0.762,0.762,8.97C23.535,34.326,22.772,36.789,22.303,36.789z"/>
		<path d="M38.25,28.287c0,15.361-6.508,20.93-14.129,20.93c-8.384,0-17.293-8.323-17.293-24.973
			c0-14.011,7.387-19.697,13.542-19.697C31.625,4.545,38.25,14.512,38.25,28.287z M32.856,24.243
			c0-11.549-5.16-18.701-12.488-18.701c-7.328,0-12.487,7.269-12.487,18.701c0,11.49,3.869,18.994,12.487,18.994
			C28.928,43.236,32.856,35.732,32.856,24.243z M31.86,23.774c-0.881-0.469-1.993-0.469-2.989,0
			c0.293,0.762,0.938,1.936,1.758,2.873c-0.586,1.935-1.113,4.63-2.933,9.615c0.412-4.984-0.233-7.681-0.819-9.615
			c0.762-0.938,1.467-2.111,1.76-2.873c-1.291-0.469-2.17-0.469-3.049,0c0.352-11.783-1.114-15.535-5.218-15.535
			s-5.569,3.752-5.217,15.535c-0.879-0.469-1.759-0.469-3.049,0c0.293,0.762,0.997,1.936,1.759,2.873
			c-0.586,1.935-1.231,4.63-0.82,9.615c-1.817-4.984-2.345-7.681-2.932-9.615c0.821-0.938,1.407-2.111,1.759-2.873
			c-0.997-0.469-2.11-0.469-2.99,0c0.352-10.67,4.456-17.177,11.49-17.177C27.403,6.597,31.449,13.104,31.86,23.774z M12.102,23.657
			c0.528-2.052,1.173-3.166,1.994-4.104c-0.997-2.286-0.997-4.689-0.528-7.855c-1.759,2.697-2.638,4.865-3.283,7.855
			c0.82,0.938,1.465,2.052,1.641,4.104H12.102z M20.368,9.293c3.516,0,4.221,3.283,4.221,14.949c0,10.494-0.705,15.242-4.221,15.242
			c-3.517,0-4.221-4.748-4.221-15.242C16.147,12.577,16.851,9.293,20.368,9.293z M22.303,36.789c0.469,0,1.229-2.463,1.229-12.545
			c0-8.207-0.117-8.969-0.762-8.969c-0.879,0-1.23,0.879-1.23,8.969C21.542,35.205,21.834,36.789,22.303,36.789z M28.871,23.715
			c0.293-2.11,0.938-3.225,1.582-4.162c-0.646-2.99-1.523-5.158-3.283-7.855c0.469,3.166,0.469,5.569-0.527,7.855
			c0.82,0.938,1.467,2.052,1.994,4.162H28.871z"/>
	</g>
</g>
</svg>
