<?xml version="1.0" encoding="utf-8"?>
<!-- Generator: Adobe Illustrator 15.0.0, SVG Export Plug-In . SVG Version: 6.00 Build 0)  -->
<!DOCTYPE svg PUBLIC "-//W3C//DTD SVG 1.1//EN" "http://www.w3.org/Graphics/SVG/1.1/DTD/svg11.dtd">
<svg version="1.1" id="Layer_1" xmlns="http://www.w3.org/2000/svg" xmlns:xlink="http://www.w3.org/1999/xlink" x="0px" y="0px"
	 width="43.167px" height="53.167px" viewBox="0 0 43.167 53.167" enable-background="new 0 0 43.167 53.167" xml:space="preserve">
<g id="Layer_5">
	<g>
		<path fill="#E08B10" d="M27.58,17.736h7.621l0.469-7.152l-4.396-5.745H10.46L9.171,25.24l1.465,1.993
			c-1.758,0.998-2.812,2.638-2.812,6.625c0,8.031,7.914,15.358,15.3,15.358c7.211,0,14.129-6.506,14.129-15.887
			C37.251,26.764,34.438,21.253,27.58,17.736z M22.246,35.266l-4.223-5.57h0.822c0.293-0.702,0.938-1.112,1.875-1.112
			c1.23,0,2.229,0.879,2.229,2.52S22.712,34.326,22.246,35.266z"/>
		<path d="M31.272,4.838l4.396,5.746l-0.467,7.152H27.58c6.858,3.518,9.674,9.028,9.674,15.594c0,9.379-6.918,15.887-14.129,15.887
			c-7.387,0-15.3-7.327-15.3-15.358c0-3.985,1.055-5.629,2.812-6.625L9.171,25.24L10.46,4.838H31.272z M13.978,24.243
			c1.525-2.051,2.99-2.521,4.984-2.521c4.28,0,5.042,5.218,5.042,8.09c0,4.396-0.703,9.027-5.509,9.027
			c-2.463,0-4.105-2.051-4.105-2.695c0-0.646,0.354-1.291,0.881-1.701c0.938-0.703,1.582-1.992,1.582-3.342
			c0-1.816-1.113-3.4-3.693-3.4c-3.107,0-4.279,2.17-4.279,6.039c0,7.445,6.332,9.496,11.9,9.496c5.687,0,11.138-4.279,11.138-13.6
			c0-8.853-4.514-12.546-10.201-12.546c-2.402,0-4.689,0.528-6.974,1.936l0.469-7.27h14.713l0.353-5.804h-18.82l-1.174,18.29
			L13.978,24.243L13.978,24.243z M12.454,6.891h16.765l-0.234,3.811H14.153l-0.645,10.317c2.521-1.876,5.57-2.931,8.089-2.931
			c3.635,0,6.977,2.051,8.209,5.686c-0.822-0.469-1.936-0.469-2.756,0c0.996,0.703,2.109,1.642,2.873,2.932
			c-0.412,2.521-1.35,5.98-3.166,9.556c0.293-3.576,0.059-7.035-1.232-9.556c0.764-0.996,1.408-1.993,1.408-2.932
			c-1.35-0.469-2.287-0.469-3.049,0c-0.879-1.582-2.404-3.049-4.923-3.049c-2.463,0-4.162,0.88-5.57,2.463h-1.992L12.454,6.891z
			 M27.05,23.715c-0.293-1.934-0.762-3.107-1.7-4.045c-2.228-0.82-4.513-0.879-8.265,0.352c3.576-0.41,4.806,0.234,5.747,0.997
			c1.934,0.352,3.225,1.173,4.104,2.696H27.05z M22.246,35.264c0.469-0.938,0.703-2.521,0.703-4.162s-0.999-2.521-2.229-2.521
			c-0.938,0-1.582,0.41-1.875,1.113h-0.822L22.246,35.264z"/>
	</g>
</g>
</svg>
