<?xml version="1.0" encoding="utf-8"?>
<!-- Generator: Adobe Illustrator 15.0.0, SVG Export Plug-In . SVG Version: 6.00 Build 0)  -->
<!DOCTYPE svg PUBLIC "-//W3C//DTD SVG 1.1//EN" "http://www.w3.org/Graphics/SVG/1.1/DTD/svg11.dtd">
<svg version="1.1" id="Layer_1" xmlns="http://www.w3.org/2000/svg" xmlns:xlink="http://www.w3.org/1999/xlink" x="0px" y="0px"
	 width="43.167px" height="53.167px" viewBox="0 0 43.167 53.167" enable-background="new 0 0 43.167 53.167" xml:space="preserve">
<g id="Layer_1_1_">
	<g>
		<path fill="#E08B10" d="M29.867,38.373V10.995L25.528,5.25h-6.215c-1.29,3.517-3.518,4.104-5.804,4.104h-2.11v6.037l4.279,5.746
			h1.231v13.483c0,2.344-0.352,3.693-1.407,3.869l-2.403,0.41v5.393l3.752,4.924h16.824v-5.803L29.867,38.373z"/>
		<path d="M25.528,5.249l4.339,5.746v27.375l3.811,5.041v5.805H16.851l-3.752-4.924v-5.395l2.403-0.41
			c1.055-0.176,1.407-1.523,1.407-3.869V21.135h-1.231l-4.279-5.744V9.352h2.11c2.286,0,4.514-0.586,5.804-4.104L25.528,5.249
			L25.528,5.249z M28.341,43.236v-3.342l-1.877-0.293c-1.523-0.293-1.992-1.992-1.992-4.689V6.304h-4.338
			c-1.407,3.106-3.459,4.104-6.449,4.104h-1.29v3.928h5.511v20.578c0,2.696-0.411,4.396-1.935,4.688l-1.817,0.293v3.342
			L28.341,43.236L28.341,43.236z M23.475,24.125c-0.646-0.469-1.349-0.469-2.169,0c0.353,0.762,0.997,1.994,1.816,2.873
			c-0.819,1.935-1.464,4.63-1.875,9.615c-0.469-4.984-1.114-7.68-1.935-9.615c0.821-0.879,1.466-2.111,1.817-2.873
			c-0.762-0.469-1.524-0.469-2.169,0V13.338h-5.511v-1.934h0.704c3.283,0,5.452-1.407,6.859-4.104h2.462L23.475,24.125
			L23.475,24.125z M21.306,24.067c0.353-2.052,0.997-3.225,1.759-4.104c-0.762-1.406-1.406-3.518-1.817-7.914
			c-0.469,4.396-1.114,6.508-1.876,7.914c0.762,0.879,1.407,2.052,1.759,4.104H21.306z"/>
	</g>
</g>
</svg>
