<?xml version="1.0" encoding="utf-8"?>
<!-- Generator: Adobe Illustrator 15.0.0, SVG Export Plug-In . SVG Version: 6.00 Build 0)  -->
<!DOCTYPE svg PUBLIC "-//W3C//DTD SVG 1.1//EN" "http://www.w3.org/Graphics/SVG/1.1/DTD/svg11.dtd">
<svg version="1.1" id="Layer_1" xmlns="http://www.w3.org/2000/svg" xmlns:xlink="http://www.w3.org/1999/xlink" x="0px" y="0px"
	 width="43.167px" height="53.167px" viewBox="0 0 43.167 53.167" enable-background="new 0 0 43.167 53.167" xml:space="preserve">
<g id="Layer_2">
	<g>
		<path fill="#E08B10" d="M32.591,29.402c1.992-1.583,3.986-4.866,3.986-9.791c0-5.159-4.75-15.066-16.356-15.066
			c-6.038,0-12.076,3.752-12.076,11.021c0,5.159,2.169,8.267,5.979,11.607c-3.166,2.813-5.804,6.742-5.804,13.25v3.518l3.752,4.924
			h4.925c0.234-1.523,1.113-2.52,2.228-2.52c1.055,0,1.935,0.293,2.755,0.762c1.348,0.703,3.283,2.109,6.977,2.109
			c5.041,0,7.974-4.279,7.974-9.496v-4.572L32.591,29.402z M21.102,20.14l-1.993-2.521c0.293-0.762,0.82-1.465,1.759-1.465
			c0.997,0,1.407,0.586,1.407,1.406C22.274,18.322,21.922,19.202,21.102,20.14z"/>
		<path d="M36.93,39.721c0,5.217-2.933,9.495-7.974,9.495c-3.692,0-5.629-1.405-6.977-2.11c-0.821-0.469-1.701-0.763-2.755-0.763
			c-1.114,0-1.993,0.998-2.228,2.521h-4.925L8.32,43.941v-3.518c0-6.508,2.638-10.437,5.804-13.25
			c-3.811-3.342-5.979-6.449-5.979-11.607c0-7.27,6.038-11.021,12.076-11.021c11.606,0,16.356,9.908,16.356,15.066
			c0,4.924-1.994,8.207-3.986,9.791l4.339,5.744V39.721z M12.894,42.884c0.176-1.698,1.114-2.52,2.287-2.52
			c1.523,0,3.106,0.645,4.748,1.582c1.056,0.586,2.58,1.289,4.515,1.289c4.748,0,7.15-3.105,7.15-9.438v-3.4h-3.46
			c0,2.932-0.176,5.275-1.991,5.275c-1.349,0-2.404-0.469-3.636-0.938c-0.938-0.409-1.816-0.646-3.106-0.646
			c-1.935,0-3.576,0.586-5.276,1.994l-0.117-0.176c1.817-3.871,5.921-5.922,8.792-7.328c3.519-1.583,8.384-4.808,8.384-13.015
			c0-6.684-5.744-10.025-10.904-10.025c-5.745,0-11.08,3.635-11.08,9.791c0,4.104,1.231,7.211,4.339,7.211
			c2.286,0,3.928-1.877,3.928-3.811c0-1.994-1.114-2.99-2.58-3.166c-1.055-0.176-1.582-0.82-1.582-1.759
			c0-1.407,1.406-4.456,5.628-4.456c3.283,0,4.689,2.99,4.689,5.922c0,4.396-2.345,7.387-7.329,11.314
			c-3.459,2.814-6.918,6.156-6.918,13.718v2.578h3.518V42.884z M30.188,15.567c0,2.756-0.938,6.566-2.756,8.207
			c-0.763-0.703-1.815-0.586-3.106,0c-0.293,0.938-0.763,2.111-0.763,3.166c-3.81,1.171-9.555,3.224-11.607,9.322
			c1.172-4.984,5.159-8.677,7.328-10.669c2.169-0.411,3.633-0.938,4.805-1.818c-0.819-0.527-1.815-0.703-3.046,0
			c1.524-1.582,3.578-4.162,3.578-8.617c0-4.221-2.463-6.859-5.806-6.859c-4.807,0-6.565,3.576-6.565,5.511
			c0,1.524,0.645,2.403,1.993,2.638c1.231,0.234,2.228,0.938,2.228,2.287c0,1.582-1.289,2.755-2.931,2.755
			c-2.639,0-3.342-2.989-3.342-6.155c0-4.572,3.752-8.735,10.024-8.735C26.436,6.597,30.188,11.112,30.188,15.567z M21.102,20.139
			c0.821-0.938,1.172-1.816,1.172-2.579c0-0.821-0.41-1.407-1.407-1.407c-0.938,0-1.466,0.703-1.759,1.466L21.102,20.139z
			 M24.326,23.715c2.11-1.641,3.518-2.755,4.34-4.104c-0.06-2.228-0.47-3.752-2.229-7.914c0.646,4.572-0.41,6.801-1.699,7.973
			c0.353,1.172,0.353,2.99-0.646,4.045H24.326z"/>
	</g>
</g>
</svg>
