<?xml version="1.0" encoding="utf-8"?>
<!-- Generator: Adobe Illustrator 15.0.0, SVG Export Plug-In . SVG Version: 6.00 Build 0)  -->
<!DOCTYPE svg PUBLIC "-//W3C//DTD SVG 1.1//EN" "http://www.w3.org/Graphics/SVG/1.1/DTD/svg11.dtd">
<svg version="1.1" id="Layer_1" xmlns="http://www.w3.org/2000/svg" xmlns:xlink="http://www.w3.org/1999/xlink" x="0px" y="0px"
	 width="43.167px" height="53.167px" viewBox="0 0 43.167 53.167" enable-background="new 0 0 43.167 53.167" xml:space="preserve">
<g id="Layer_8">
	<g>
		<path fill="#E08B10" d="M33.878,26.236c2.347-2.402,3.05-4.396,3.05-8.148c0-7.68-8.5-13.542-16.296-13.542
			c-7.152,0-12.957,4.045-12.957,10.669c0,3.576,0.939,6.039,3.635,8.912c-2.109,1.582-4.748,4.457-4.748,9.322
			c0,10.729,9.264,15.77,16.533,15.77c7.854,0,15.417-3.4,15.417-12.604C38.512,32.451,37.514,29.285,33.878,26.236z M22.273,14.16
			c0.998,0,1.525,0.527,1.115,1.407c-0.469,0.821-1.76,1.759-2.756,2.052c-0.527-0.469-0.703-0.938-0.703-1.583
			C19.929,14.98,21.277,14.16,22.273,14.16z M21.57,37.141c-1.113,0-2.521-0.879-2.58-2.464c-0.059-1.112,1.057-2.637,3.107-3.047
			c1.877,0.586,2.521,1.466,2.521,2.695C24.619,35.91,23.154,37.141,21.57,37.141z"/>
		<path d="M36.928,18.088c0,3.752-0.703,5.744-3.05,8.148c3.636,3.049,4.634,6.215,4.634,10.376c0,9.203-7.562,12.604-15.417,12.604
			c-7.27,0-16.533-5.041-16.533-15.771c0-4.864,2.639-7.738,4.748-9.322c-2.695-2.872-3.635-5.334-3.635-8.91
			c0-6.625,5.805-10.67,12.957-10.67C28.428,4.545,36.928,10.408,36.928,18.088z M8.732,15.215c0,4.221,1.641,6.507,4.279,8.91
			c-2.932,1.76-5.395,5.394-5.395,9.322c0,8.324,7.328,9.789,12.371,9.789c6.623,0,13.13-2.52,13.13-10.668
			c0-3.635-1.934-7.622-5.979-9.439c2.461-1.876,4.514-4.396,4.514-8.5c0-6.625-6.447-9.088-11.021-9.088
			C14.476,5.542,8.732,9.059,8.732,15.215z M30.658,14.629c0,3.869-1.994,6.39-5.746,9.32c-1.522-0.879-3.576-0.879-5.158-0.059
			c3.576,0.938,7.035,1.466,9.026,2.521c0.527,1.465,1.406,5.747,0.527,9.848c0.06-4.457-3.399-7.444-5.274-8.092
			c-0.645-1.64-2.639-3.223-4.572-4.219c-1.994-0.82-3.811-0.469-4.809,0.293c-2.402-2.109-4.924-4.338-4.924-9.027
			s3.928-8.618,10.904-8.618C25.908,6.597,30.658,9.352,30.658,14.629z M19.753,23.833c-3.928-2.462-4.574-4.104-4.574-5.921
			c-1.523-0.997-2.344-2.813-2.227-6.214c-1.172,2.932-1.467,5.628-1.467,7.68c1.643,1.642,4.164,2.99,7.975,4.455H19.753z
			 M13.011,32.509c0-2.17,1.465-4.631,4.338-5.334c5.629,2.111,8.559,4.103,8.559,6.449c0,3.106-2.637,4.865-5.744,4.865
			C16.294,38.488,13.011,36.671,13.011,32.509z M26.435,13.515c0-2.989-2.461-5.276-5.979-5.276c-3.049,0-5.746,1.876-5.746,5.159
			c0,3.458,3.869,5.804,5.746,6.858C23.154,18.616,26.435,16.797,26.435,13.515z M25.439,13.515c0,2.052-2.461,4.279-4.982,5.511
			c-2.521-1.231-4.748-3.459-4.748-5.628c0-2.872,2.754-4.104,4.748-4.104C22.919,9.293,25.439,10.995,25.439,13.515z M18.99,34.677
			c0.059,1.585,1.467,2.464,2.58,2.464c1.584,0,3.049-1.229,3.049-2.813c0-1.23-0.645-2.109-2.521-2.697
			C20.046,32.039,18.931,33.564,18.99,34.677z M23.388,15.567c0.41-0.879-0.117-1.407-1.115-1.407c-0.996,0-2.344,0.821-2.344,1.876
			c0,0.645,0.176,1.114,0.703,1.583C21.628,17.326,22.919,16.387,23.388,15.567z"/>
	</g>
</g>
</svg>
