<?xml version="1.0" encoding="utf-8"?>
<!-- Generator: Adobe Illustrator 15.0.0, SVG Export Plug-In . SVG Version: 6.00 Build 0)  -->
<!DOCTYPE svg PUBLIC "-//W3C//DTD SVG 1.1//EN" "http://www.w3.org/Graphics/SVG/1.1/DTD/svg11.dtd">
<svg version="1.1" id="Layer_1" xmlns="http://www.w3.org/2000/svg" xmlns:xlink="http://www.w3.org/1999/xlink" x="0px" y="0px"
	 width="43.167px" height="53.167px" viewBox="0 0 43.167 53.167" enable-background="new 0 0 43.167 53.167" xml:space="preserve">
<g id="Layer_7">
	<g>
		<path fill="#E08B10" d="M34.438,5.25h-5.51c0,1.172-0.587,1.934-1.408,1.934c-0.646,0-1.349-0.527-2.461-1.113
			c-1.115-0.586-2.58-1.173-4.691-1.173c-2.285,0-4.396,0.47-6.096,1.29c-0.879,0.41-1.525,0.82-1.936,0.82
			c-0.176,0-0.293-0.234-0.352-0.586c-0.117-0.352-0.176-0.82-0.234-1.29H6.299v16.942l3.518,4.279l6.74-0.059
			c0.178-5.744,1.115-7.387,2.346-7.387c0.586,0,0.938,0.059,1.406,0.234c-0.762,1.525-2.344,4.867-3.34,7.562
			c-1.584,4.105-2.932,10.142-2.932,14.656v2.932l3.693,4.924h10.729v-3.397c0-8.502,1.816-14.069,4.045-19.054
			c2.168-5.041,5.861-9.672,6.271-15.77L34.438,5.25z"/>
		<path d="M14.038,41.361c0-4.514,1.348-10.553,2.932-14.656c0.996-2.697,2.578-6.039,3.34-7.562
			c-0.469-0.176-0.82-0.234-1.406-0.234c-1.23,0-2.168,1.641-2.346,7.387l-6.74,0.059L6.3,22.075V5.131h5.451
			c0.059,0.469,0.117,0.938,0.234,1.29c0.059,0.352,0.176,0.586,0.352,0.586c0.41,0,1.057-0.41,1.936-0.821
			c1.699-0.82,3.811-1.289,6.096-1.289c2.111,0,3.576,0.586,4.691,1.172c1.113,0.587,1.816,1.115,2.461,1.115
			c0.822,0,1.408-0.763,1.408-1.936h5.51l4.338,5.746c-0.41,6.096-4.104,10.728-6.271,15.77c-2.229,4.981-4.045,10.552-4.045,19.052
			v3.4H17.731l-3.693-4.924V41.361z M23.065,40.6c0-8.502,2.64-14.246,5.16-19.17c2.578-4.866,5.217-8.97,5.217-14.069V6.304H29.69
			c0,0.645-0.233,1.114-0.586,1.407c-0.41,0.352-0.879,0.527-1.584,0.527c-0.879,0-1.758-0.586-2.812-1.173
			c-1.058-0.527-2.463-1.173-4.34-1.173c-2.285,0-4.221,0.411-5.686,1.114c-0.879,0.411-2.229,0.997-2.814,0.997
			c-0.41,0-0.879-0.645-0.996-1.818H7.354v14.949h5.158c0-6.154,2.111-9.027,4.516-9.027c1.113,0,2.285,0.176,3.518,0.586
			c1.23,0.469,2.93,1.114,3.987,0.996l0.293,0.177c-3.636,5.687-9.792,16.883-9.792,27.846v1.522h8.031V40.6z M32.387,7.301V7.77
			c0,5.393-3.636,10.2-6.685,16.355c-0.82-0.469-1.701-0.469-2.697,0c0.177,1.231,0.646,2.111,1.113,2.873
			c-1.699,1.759-4.104,5.687-5.158,9.615c-0.117-3.752,0.293-7.68,0.703-9.615c0.762-0.938,1.936-1.935,3.107-2.873
			c-0.645-0.469-1.406-0.469-2.521,0c1.408-2.99,2.697-5.1,3.928-7.094c0.938-1.582,1.524-2.696,1.817-3.635
			c0.117-0.293,0.176-0.703-0.176-0.703c-0.586,0.117-3.107-0.293-4.865-0.938c-1.291-0.469-2.639-0.645-3.928-0.645
			c-3.693,0-5.512,4.338-5.512,9.027H8.35V7.184h1.643c0.293,0.996,0.82,1.875,1.465,1.875c0.82,0,1.936-0.352,3.459-1.055
			c1.348-0.645,3.225-1.114,5.451-1.114c1.643,0,2.932,0.587,4.047,1.173c1.172,0.527,2.227,1.23,3.223,1.23
			c1.291,0,2.639-0.527,2.932-1.992H32.387z M23.005,24.067c0.996-1.289,2.229-2.638,4.104-4.104
			c0.177-1.642,0.353-3.225,2.17-7.914c-2.932,5.158-4.514,6.625-5.979,7.914c-0.117,1.29-0.293,2.58-0.527,4.104H23.005z"/>
	</g>
</g>
</svg>
