<?xml version="1.0" encoding="utf-8"?>
<!-- Generator: Adobe Illustrator 15.0.0, SVG Export Plug-In . SVG Version: 6.00 Build 0)  -->
<!DOCTYPE svg PUBLIC "-//W3C//DTD SVG 1.1//EN" "http://www.w3.org/Graphics/SVG/1.1/DTD/svg11.dtd">
<svg version="1.1" id="Layer_1" xmlns="http://www.w3.org/2000/svg" xmlns:xlink="http://www.w3.org/1999/xlink" x="0px" y="0px"
	 width="43.167px" height="53.167px" viewBox="0 0 43.167 53.167" enable-background="new 0 0 43.167 53.167" xml:space="preserve">
<g id="Layer_3">
	<g>
		<path fill="#E08B10" d="M32.942,27.173c1.877-1.583,3.869-4.278,3.869-7.621c0-5.979-5.511-15.008-17.059-15.008
			c-6.977,0-11.9,4.573-11.9,10.904c0,4.221,1.289,7.151,5.276,11.256C8.965,26.94,7.793,29.93,7.793,33.74
			c0,8.148,6.8,15.477,16.533,15.477c6.389,0,12.955-4.396,12.955-11.432C37.283,33.154,36.048,29.753,32.942,27.173z
			 M20.925,15.333c1.113,0,1.7,0.41,1.7,2.052c0,1.055-0.47,2.228-1.29,3.107l-2.345-3.518
			C19.342,15.918,19.987,15.333,20.925,15.333z M22.333,35.852l-4.339-7.271c0.528,0.06,1.231-0.176,1.642-0.41
			c2.228,2.754,3.4,4.982,3.342,5.568C22.917,34.619,22.684,35.382,22.333,35.852z"/>
		<path d="M36.811,19.553c0,3.342-1.992,6.039-3.869,7.621c3.106,2.58,4.341,5.98,4.341,10.611c0,7.035-6.566,11.432-12.957,11.432
			c-9.731,0-16.532-7.327-16.532-15.477c0-3.811,1.172-6.8,5.335-7.035C9.141,22.602,7.852,19.67,7.852,15.45
			c0-6.332,4.924-10.904,11.9-10.904C31.3,4.545,36.811,13.574,36.811,19.553z M19.167,26.471c2.403,0,4.866,0.646,4.866,6.448
			c0,4.631-2.99,5.92-5.276,5.92c-2.932,0-4.69-1.815-4.69-2.871c0-0.528,0.41-1.114,1.056-1.524
			c0.82-0.469,1.759-1.991,1.759-3.519c0-1.641-1.173-3.223-3.752-3.223c-3.049,0-4.28,2.461-4.28,6.096
			c0,7.388,6.332,9.438,12.312,9.438c5.746,0,10.728-3.752,10.728-10.668c0-4.223-2.404-7.856-4.982-8.736v-0.176
			c1.875-0.996,4.514-3.576,4.514-8.266c0-6.918-5.979-9.85-11.606-9.85c-5.041,0-10.963,3.635-10.963,9.791
			c0,4.104,1.173,6.801,4.163,6.801c2.345,0,3.986-1.818,3.986-3.811c0-1.994-1.407-3.107-2.521-3.225
			c-0.82-0.117-1.523-0.645-1.523-1.7s1.289-4.104,5.334-4.104c3.987,0,5.453,2.814,5.453,6.918c0,4.455-2.463,6.391-4.573,6.684
			v3.576H19.167z M20.104,23.657c2.756-0.762,4.632-3.811,4.632-7.445c0-5.217-2.345-7.973-6.566-7.973
			c-3.693,0-6.272,2.932-6.272,5.159c0,1.29,0.879,2.286,2.052,2.462c1.23,0.176,2.05,1.29,2.05,2.463
			c0,1.582-1.349,2.755-2.989,2.755c-1.759,0-3.107-1.7-3.107-6.155c0-4.515,4.162-8.325,9.849-8.325
			c5.804,0,10.67,3.342,10.67,8.794c0,3.459-2.053,6.684-4.633,7.738v1.406c-0.645-0.762-1.992-0.762-2.931,0
			c2.286,0.177,3.869,0.998,5.274,2.17c0.703,2.581,0.234,5.863-1.172,9.556c0.353-4.281-0.586-6.978-2.402-8.384
			c0.176-1.113-0.352-2.696-1.936-3.284c-0.527-0.703-1.758-0.762-2.521-0.176V23.657z M22.333,35.85
			c0.352-0.47,0.586-1.229,0.645-2.108c0.059-0.586-1.114-2.814-3.342-5.57c-0.41,0.236-1.113,0.471-1.642,0.412L22.333,35.85z
			 M21.335,20.491c0.82-0.879,1.29-2.051,1.29-3.106c0-1.642-0.586-2.052-1.7-2.052c-0.938,0-1.583,0.586-1.935,1.641L21.335,20.491
			z M22.86,24.477c3.343-2.461,4.339-3.341,5.451-4.396c0-2.228-0.41-5.451-1.699-8.383c0.763,4.865-0.353,6.684-1.583,7.738
			c0.059,1.642-0.703,3.4-2.402,5.041H22.86z"/>
	</g>
</g>
</svg>
