<?xml version="1.0" encoding="utf-8"?>
<!-- Generator: Adobe Illustrator 15.0.0, SVG Export Plug-In . SVG Version: 6.00 Build 0)  -->
<!DOCTYPE svg PUBLIC "-//W3C//DTD SVG 1.1//EN" "http://www.w3.org/Graphics/SVG/1.1/DTD/svg11.dtd">
<svg version="1.1" id="Layer_1" xmlns="http://www.w3.org/2000/svg" xmlns:xlink="http://www.w3.org/1999/xlink" x="0px" y="0px"
	 width="43.167px" height="53.167px" viewBox="0 0 43.167 53.167" enable-background="new 0 0 43.167 53.167" xml:space="preserve">
<g id="Layer_9">
	<g>
		<path fill="#E08B10" d="M19.196,4.545c-6.098,0-11.959,3.165-11.959,13.015c0,6.273,4.045,10.201,5.217,10.963
			c-2.697,0.059-4.514,2.344-4.514,6.391c0,8.148,7.211,14.303,15.009,14.303c8.147,0,14.891-7.504,14.891-22.217
			C37.837,14.511,30.686,4.545,19.196,4.545z M21.422,15.977c0.646,0,0.998,0.821,0.998,2.403c0,1.525-0.88,3.518-1.466,3.518
			c-0.82,0-1.113-1.289-1.113-3.049C19.84,16.681,20.426,15.977,21.422,15.977z M21.305,37.257l-3.223-4.571
			c1.23,0.47,2.812,0.763,4.572,0.526C22.596,34.326,21.893,36.496,21.305,37.257z"/>
		<path d="M7.94,34.912c0-4.045,1.816-6.33,4.514-6.389c-1.172-0.764-5.217-4.691-5.217-10.963c0-9.849,5.861-13.015,11.959-13.015
			c11.49,0,18.644,9.967,18.644,22.453c0,14.714-6.742,22.218-14.891,22.218C15.151,49.216,7.94,43.061,7.94,34.912z M32.501,24.594
			c0-11.783-5.1-19.053-13.248-19.053c-5.629,0-10.963,2.756-10.963,12.019c0,7.328,5.275,10.668,9.613,10.668
			c2.58,0,4.809-0.996,6.273-2.93c0.527,6.506-0.41,14.245-5.451,14.245c-2.99,0-4.633-1.522-4.633-2.285
			c0-0.702,0.178-1.348,0.822-1.877c0.762-0.645,1.23-1.698,1.23-2.987c0-1.291-1.23-2.873-3.693-2.873
			c-2.404,0-3.459,2.64-3.459,5.394c0,5.16,5.041,8.323,9.967,8.323C26.934,43.236,32.501,37.199,32.501,24.594z M19.254,6.597
			c8.266,0,11.9,7.681,12.193,17.177c-1.113-0.469-2.168-0.469-3.518,0c0.938,1.524,1.525,2.756,1.877,3.985
			c-0.705,2.58-1.701,5.043-3.576,8.443c0.82-3.811,0.527-6.272-0.234-8.443c0.938-0.995,1.582-2.461,1.642-3.985
			c-1.229-0.469-2.171-0.469-3.226,0c-1.699,2.229-3.986,3.459-6.508,3.459c-2.754,0-8.617-2.286-8.617-9.673
			C9.288,9.059,14.094,6.597,19.254,6.597z M24.707,16.739c0-5.275-2.109-8.5-5.218-8.5c-3.576,0-5.277,3.576-5.277,8.5
			c0,5.453,1.877,7.797,5.277,7.797C22.596,24.536,24.707,22.133,24.707,16.739z M23.651,16.739c0,4.573-1.582,6.801-4.162,6.801
			c-2.639,0-4.221-2.228-4.221-6.801c0-4.572,1.465-7.445,4.221-7.445C22.069,9.293,23.651,12.167,23.651,16.739z M21.305,37.257
			c0.588-0.762,1.291-2.932,1.35-4.045c-1.76,0.234-3.342-0.059-4.572-0.526L21.305,37.257z M19.84,18.85
			c0,1.758,0.293,3.049,1.113,3.049c0.586,0,1.466-1.994,1.466-3.518c0-1.584-0.352-2.404-0.998-2.404
			C20.426,15.977,19.84,16.68,19.84,18.85z M27.93,23.657c0.879-1.348,1.35-2.814,1.76-3.986c-0.41-2.052-1.524-4.396-3.399-8.031
			c0.762,4.396,0.645,6.331-0.293,8.09c0.996,1.29,1.522,2.58,1.641,3.928L27.93,23.657L27.93,23.657z"/>
	</g>
</g>
</svg>
