<?xml version="1.0" encoding="UTF-8"?>
<svg width="86px" height="86px" viewBox="0 0 86 86" version="1.1" xmlns="http://www.w3.org/2000/svg" xmlns:xlink="http://www.w3.org/1999/xlink">
    <!-- Generator: Sketch 48.2 (47327) - http://www.bohemiancoding.com/sketch -->
    <title>Golf Ball</title>
    <desc>Created with Sketch.</desc>
    <defs>
        <path d="M30.6218182,2.96602174 C-7.03309091,11.1811087 -8.89636364,62.193587 20.7804545,80.5430652 C48.7219091,97.8168043 91.1419091,69.2303913 82.9614545,35.9095652 C82.299,33.2066739 75.6763636,1.50332609 43.3573636,1.5013913 C39.4914545,1.49945652 35.259,1.95413043 30.6218182,2.96602174" id="path-1"></path>
        <path d="M30.6218182,2.96602174 C-7.03309091,11.1811087 -8.89636364,62.193587 20.7804545,80.5430652 C48.7219091,97.8168043 91.1419091,69.2303913 82.9614545,35.9095652 C82.299,33.2066739 75.6763636,1.50332609 43.3573636,1.5013913 C39.4914545,1.49945652 35.259,1.95413043 30.6218182,2.96602174" id="path-3"></path>
        <path d="M30.6218182,2.96602174 C-7.03309091,11.1811087 -8.89636364,62.193587 20.7804545,80.5430652 C48.7219091,97.8168043 91.1419091,69.2303913 82.9614545,35.9095652 C82.299,33.2066739 75.6763636,1.50332609 43.3573636,1.5013913 C39.4914545,1.49945652 35.259,1.95413043 30.6218182,2.96602174" id="path-5"></path>
        <path d="M30.6218182,2.96602174 C-7.03309091,11.1811087 -8.89636364,62.193587 20.7804545,80.5430652 C48.7219091,97.8168043 91.1419091,69.2303913 82.9614545,35.9095652 C82.299,33.2066739 75.6763636,1.50332609 43.3573636,1.5013913 C39.4914545,1.49945652 35.259,1.95413043 30.6218182,2.96602174" id="path-7"></path>
        <path d="M30.6218182,2.96602174 C-7.03309091,11.1811087 -8.89636364,62.193587 20.7804545,80.5430652 C48.7219091,97.8168043 91.1419091,69.2303913 82.9614545,35.9095652 C82.299,33.2066739 75.6763636,1.50332609 43.3573636,1.5013913 C39.4914545,1.49945652 35.259,1.95413043 30.6218182,2.96602174" id="path-9"></path>
        <path d="M30.6218182,2.96602174 C-7.03309091,11.1811087 -8.89636364,62.193587 20.7804545,80.5430652 C48.7219091,97.8168043 91.1419091,69.2303913 82.9614545,35.9095652 C82.299,33.2066739 75.6763636,1.50332609 43.3573636,1.5013913 C39.4914545,1.49945652 35.259,1.95413043 30.6218182,2.96602174" id="path-11"></path>
        <path d="M30.6218182,2.96602174 C-7.03309091,11.1811087 -8.89636364,62.193587 20.7804545,80.5430652 C48.7219091,97.8168043 91.1419091,69.2303913 82.9614545,35.9095652 C82.299,33.2066739 75.6763636,1.50332609 43.3573636,1.5013913 C39.4914545,1.49945652 35.259,1.95413043 30.6218182,2.96602174" id="path-13"></path>
        <path d="M30.6218182,2.96602174 C-7.03309091,11.1811087 -8.89636364,62.193587 20.7804545,80.5430652 C48.7219091,97.8168043 91.1419091,69.2303913 82.9614545,35.9095652 C82.299,33.2066739 75.6763636,1.50332609 43.3573636,1.5013913 C39.4914545,1.49945652 35.259,1.95413043 30.6218182,2.96602174" id="path-15"></path>
        <path d="M30.6218182,2.96602174 C-7.03309091,11.1811087 -8.89636364,62.193587 20.7804545,80.5430652 C48.7219091,97.8168043 91.1419091,69.2303913 82.9614545,35.9095652 C82.299,33.2066739 75.6763636,1.50332609 43.3573636,1.5013913 C39.4914545,1.49945652 35.259,1.95413043 30.6218182,2.96602174" id="path-17"></path>
        <path d="M30.6218182,2.96602174 C-7.03309091,11.1811087 -8.89636364,62.193587 20.7804545,80.5430652 C48.7219091,97.8168043 91.1419091,69.2303913 82.9614545,35.9095652 C82.299,33.2066739 75.6763636,1.50332609 43.3573636,1.5013913 C39.4914545,1.49945652 35.259,1.95413043 30.6218182,2.96602174" id="path-19"></path>
        <path d="M30.6218182,2.96602174 C-7.03309091,11.1811087 -8.89636364,62.193587 20.7804545,80.5430652 C48.7219091,97.8168043 91.1419091,69.2303913 82.9614545,35.9095652 C82.299,33.2066739 75.6763636,1.50332609 43.3573636,1.5013913 C39.4914545,1.49945652 35.259,1.95413043 30.6218182,2.96602174" id="path-21"></path>
        <path d="M30.6218182,2.96602174 C-7.03309091,11.1811087 -8.89636364,62.193587 20.7804545,80.5430652 C48.7219091,97.8168043 91.1419091,69.2303913 82.9614545,35.9095652 C82.299,33.2066739 75.6763636,1.50332609 43.3573636,1.5013913 C39.4914545,1.49945652 35.259,1.95413043 30.6218182,2.96602174" id="path-23"></path>
        <path d="M30.6218182,2.96602174 C-7.03309091,11.1811087 -8.89636364,62.193587 20.7804545,80.5430652 C48.7219091,97.8168043 91.1419091,69.2303913 82.9614545,35.9095652 C82.299,33.2066739 75.6763636,1.50332609 43.3573636,1.5013913 C39.4914545,1.49945652 35.259,1.95413043 30.6218182,2.96602174" id="path-25"></path>
        <path d="M30.6218182,2.96602174 C-7.03309091,11.1811087 -8.89636364,62.193587 20.7804545,80.5430652 C48.7219091,97.8168043 91.1419091,69.2303913 82.9614545,35.9095652 C82.299,33.2066739 75.6763636,1.50332609 43.3573636,1.5013913 C39.4914545,1.49945652 35.259,1.95413043 30.6218182,2.96602174" id="path-27"></path>
        <path d="M30.6218182,2.96602174 C-7.03309091,11.1811087 -8.89636364,62.193587 20.7804545,80.5430652 C48.7219091,97.8168043 91.1419091,69.2303913 82.9614545,35.9095652 C82.299,33.2066739 75.6763636,1.50332609 43.3573636,1.5013913 C39.4914545,1.49945652 35.259,1.95413043 30.6218182,2.96602174" id="path-29"></path>
        <path d="M30.6218182,2.96602174 C-7.03309091,11.1811087 -8.89636364,62.193587 20.7804545,80.5430652 C48.7219091,97.8168043 91.1419091,69.2303913 82.9614545,35.9095652 C82.299,33.2066739 75.6763636,1.50332609 43.3573636,1.5013913 C39.4914545,1.49945652 35.259,1.95413043 30.6218182,2.96602174" id="path-31"></path>
        <path d="M30.6218182,2.96602174 C-7.03309091,11.1811087 -8.89636364,62.193587 20.7804545,80.5430652 C48.7219091,97.8168043 91.1419091,69.2303913 82.9614545,35.9095652 C82.299,33.2066739 75.6763636,1.50332609 43.3573636,1.5013913 C39.4914545,1.49945652 35.259,1.95413043 30.6218182,2.96602174" id="path-33"></path>
        <path d="M30.6218182,2.96602174 C-7.03309091,11.1811087 -8.89636364,62.193587 20.7804545,80.5430652 C48.7219091,97.8168043 91.1419091,69.2303913 82.9614545,35.9095652 C82.299,33.2066739 75.6763636,1.50332609 43.3573636,1.5013913 C39.4914545,1.49945652 35.259,1.95413043 30.6218182,2.96602174" id="path-35"></path>
        <path d="M30.6218182,2.96602174 C-7.03309091,11.1811087 -8.89636364,62.193587 20.7804545,80.5430652 C48.7219091,97.8168043 91.1419091,69.2303913 82.9614545,35.9095652 C82.299,33.2066739 75.6763636,1.50332609 43.3573636,1.5013913 C39.4914545,1.49945652 35.259,1.95413043 30.6218182,2.96602174" id="path-37"></path>
        <path d="M30.6218182,2.96602174 C-7.03309091,11.1811087 -8.89636364,62.193587 20.7804545,80.5430652 C48.7219091,97.8168043 91.1419091,69.2303913 82.9614545,35.9095652 C82.299,33.2066739 75.6763636,1.50332609 43.3573636,1.5013913 C39.4914545,1.49945652 35.259,1.95413043 30.6218182,2.96602174" id="path-39"></path>
        <path d="M30.6218182,2.96602174 C-7.03309091,11.1811087 -8.89636364,62.193587 20.7804545,80.5430652 C48.7219091,97.8168043 91.1419091,69.2303913 82.9614545,35.9095652 C82.299,33.2066739 75.6763636,1.50332609 43.3573636,1.5013913 C39.4914545,1.49945652 35.259,1.95413043 30.6218182,2.96602174" id="path-41"></path>
        <path d="M30.6218182,2.96602174 C-7.03309091,11.1811087 -8.89636364,62.193587 20.7804545,80.5430652 C48.7219091,97.8168043 91.1419091,69.2303913 82.9614545,35.9095652 C82.299,33.2066739 75.6763636,1.50332609 43.3573636,1.5013913 C39.4914545,1.49945652 35.259,1.95413043 30.6218182,2.96602174" id="path-43"></path>
        <path d="M30.6218182,2.96602174 C-7.03309091,11.1811087 -8.89636364,62.193587 20.7804545,80.5430652 C48.7219091,97.8168043 91.1419091,69.2303913 82.9614545,35.9095652 C82.299,33.2066739 75.6763636,1.50332609 43.3573636,1.5013913 C39.4914545,1.49945652 35.259,1.95413043 30.6218182,2.96602174" id="path-45"></path>
        <path d="M30.6218182,2.96602174 C-7.03309091,11.1811087 -8.89636364,62.193587 20.7804545,80.5430652 C48.7219091,97.8168043 91.1419091,69.2303913 82.9614545,35.9095652 C82.299,33.2066739 75.6763636,1.50332609 43.3573636,1.5013913 C39.4914545,1.49945652 35.259,1.95413043 30.6218182,2.96602174" id="path-47"></path>
        <path d="M30.6218182,2.96602174 C-7.03309091,11.1811087 -8.89636364,62.193587 20.7804545,80.5430652 C48.7219091,97.8168043 91.1419091,69.2303913 82.9614545,35.9095652 C82.299,33.2066739 75.6763636,1.50332609 43.3573636,1.5013913 C39.4914545,1.49945652 35.259,1.95413043 30.6218182,2.96602174" id="path-49"></path>
        <path d="M30.6218182,2.96602174 C-7.03309091,11.1811087 -8.89636364,62.193587 20.7804545,80.5430652 C48.7219091,97.8168043 91.1419091,69.2303913 82.9614545,35.9095652 C82.299,33.2066739 75.6763636,1.50332609 43.3573636,1.5013913 C39.4914545,1.49945652 35.259,1.95413043 30.6218182,2.96602174" id="path-51"></path>
        <path d="M30.6218182,2.96602174 C-7.03309091,11.1811087 -8.89636364,62.193587 20.7804545,80.5430652 C48.7219091,97.8168043 91.1419091,69.2303913 82.9614545,35.9095652 C82.299,33.2066739 75.6763636,1.50332609 43.3573636,1.5013913 C39.4914545,1.49945652 35.259,1.95413043 30.6218182,2.96602174" id="path-53"></path>
        <path d="M30.6218182,2.96602174 C-7.03309091,11.1811087 -8.89636364,62.193587 20.7804545,80.5430652 C48.7219091,97.8168043 91.1419091,69.2303913 82.9614545,35.9095652 C82.299,33.2066739 75.6763636,1.50332609 43.3573636,1.5013913 C39.4914545,1.49945652 35.259,1.95413043 30.6218182,2.96602174" id="path-55"></path>
        <path d="M30.6218182,2.96602174 C-7.03309091,11.1811087 -8.89636364,62.193587 20.7804545,80.5430652 C48.7219091,97.8168043 91.1419091,69.2303913 82.9614545,35.9095652 C82.299,33.2066739 75.6763636,1.50332609 43.3573636,1.5013913 C39.4914545,1.49945652 35.259,1.95413043 30.6218182,2.96602174" id="path-57"></path>
        <path d="M30.6218182,2.96602174 C-7.03309091,11.1811087 -8.89636364,62.193587 20.7804545,80.5430652 C48.7219091,97.8168043 91.1419091,69.2303913 82.9614545,35.9095652 C82.299,33.2066739 75.6763636,1.50332609 43.3573636,1.5013913 C39.4914545,1.49945652 35.259,1.95413043 30.6218182,2.96602174" id="path-59"></path>
        <path d="M30.6218182,2.96602174 C-7.03309091,11.1811087 -8.89636364,62.193587 20.7804545,80.5430652 C48.7219091,97.8168043 91.1419091,69.2303913 82.9614545,35.9095652 C82.299,33.2066739 75.6763636,1.50332609 43.3573636,1.5013913 C39.4914545,1.49945652 35.259,1.95413043 30.6218182,2.96602174" id="path-61"></path>
        <path d="M30.6218182,2.96602174 C-7.03309091,11.1811087 -8.89636364,62.193587 20.7804545,80.5430652 C48.7219091,97.8168043 91.1419091,69.2303913 82.9614545,35.9095652 C82.299,33.2066739 75.6763636,1.50332609 43.3573636,1.5013913 C39.4914545,1.49945652 35.259,1.95413043 30.6218182,2.96602174" id="path-63"></path>
        <path d="M30.6218182,2.96602174 C-7.03309091,11.1811087 -8.89636364,62.193587 20.7804545,80.5430652 C48.7219091,97.8168043 91.1419091,69.2303913 82.9614545,35.9095652 C82.299,33.2066739 75.6763636,1.50332609 43.3573636,1.5013913 C39.4914545,1.49945652 35.259,1.95413043 30.6218182,2.96602174" id="path-65"></path>
        <path d="M30.6218182,2.96602174 C-7.03309091,11.1811087 -8.89636364,62.193587 20.7804545,80.5430652 C48.7219091,97.8168043 91.1419091,69.2303913 82.9614545,35.9095652 C82.299,33.2066739 75.6763636,1.50332609 43.3573636,1.5013913 C39.4914545,1.49945652 35.259,1.95413043 30.6218182,2.96602174" id="path-67"></path>
        <path d="M30.6218182,2.96602174 C-7.03309091,11.1811087 -8.89636364,62.193587 20.7804545,80.5430652 C48.7219091,97.8168043 91.1419091,69.2303913 82.9614545,35.9095652 C82.299,33.2066739 75.6763636,1.50332609 43.3573636,1.5013913 C39.4914545,1.49945652 35.259,1.95413043 30.6218182,2.96602174" id="path-69"></path>
        <path d="M30.6218182,2.96602174 C-7.03309091,11.1811087 -8.89636364,62.193587 20.7804545,80.5430652 C48.7219091,97.8168043 91.1419091,69.2303913 82.9614545,35.9095652 C82.299,33.2066739 75.6763636,1.50332609 43.3573636,1.5013913 C39.4914545,1.49945652 35.259,1.95413043 30.6218182,2.96602174" id="path-71"></path>
        <path d="M30.6218182,2.96602174 C-7.03309091,11.1811087 -8.89636364,62.193587 20.7804545,80.5430652 C48.7219091,97.8168043 91.1419091,69.2303913 82.9614545,35.9095652 C82.299,33.2066739 75.6763636,1.50332609 43.3573636,1.5013913 C39.4914545,1.49945652 35.259,1.95413043 30.6218182,2.96602174" id="path-73"></path>
        <path d="M30.6218182,2.96602174 C-7.03309091,11.1811087 -8.89636364,62.193587 20.7804545,80.5430652 C48.7219091,97.8168043 91.1419091,69.2303913 82.9614545,35.9095652 C82.299,33.2066739 75.6763636,1.50332609 43.3573636,1.5013913 C39.4914545,1.49945652 35.259,1.95413043 30.6218182,2.96602174" id="path-75"></path>
        <path d="M30.6218182,2.96602174 C-7.03309091,11.1811087 -8.89636364,62.193587 20.7804545,80.5430652 C48.7219091,97.8168043 91.1419091,69.2303913 82.9614545,35.9095652 C82.299,33.2066739 75.6763636,1.50332609 43.3573636,1.5013913 C39.4914545,1.49945652 35.259,1.95413043 30.6218182,2.96602174" id="path-77"></path>
        <path d="M30.6218182,2.96602174 C-7.03309091,11.1811087 -8.89636364,62.193587 20.7804545,80.5430652 C48.7219091,97.8168043 91.1419091,69.2303913 82.9614545,35.9095652 C82.299,33.2066739 75.6763636,1.50332609 43.3573636,1.5013913 C39.4914545,1.49945652 35.259,1.95413043 30.6218182,2.96602174" id="path-79"></path>
        <path d="M30.6218182,2.96602174 C-7.03309091,11.1811087 -8.89636364,62.193587 20.7804545,80.5430652 C48.7219091,97.8168043 91.1419091,69.2303913 82.9614545,35.9095652 C82.299,33.2066739 75.6763636,1.50332609 43.3573636,1.5013913 C39.4914545,1.49945652 35.259,1.95413043 30.6218182,2.96602174" id="path-81"></path>
        <path d="M30.6218182,2.96602174 C-7.03309091,11.1811087 -8.89636364,62.193587 20.7804545,80.5430652 C48.7219091,97.8168043 91.1419091,69.2303913 82.9614545,35.9095652 C82.299,33.2066739 75.6763636,1.50332609 43.3573636,1.5013913 C39.4914545,1.49945652 35.259,1.95413043 30.6218182,2.96602174" id="path-83"></path>
        <path d="M30.6218182,2.96602174 C-7.03309091,11.1811087 -8.89636364,62.193587 20.7804545,80.5430652 C48.7219091,97.8168043 91.1419091,69.2303913 82.9614545,35.9095652 C82.299,33.2066739 75.6763636,1.50332609 43.3573636,1.5013913 C39.4914545,1.49945652 35.259,1.95413043 30.6218182,2.96602174" id="path-85"></path>
        <path d="M30.6218182,2.96602174 C-7.03309091,11.1811087 -8.89636364,62.193587 20.7804545,80.5430652 C48.7219091,97.8168043 91.1419091,69.2303913 82.9614545,35.9095652 C82.299,33.2066739 75.6763636,1.50332609 43.3573636,1.5013913 C39.4914545,1.49945652 35.259,1.95413043 30.6218182,2.96602174" id="path-87"></path>
    </defs>
    <g id="Artboard" stroke="none" stroke-width="1" fill="none" fill-rule="evenodd" transform="translate(-2058.000000, -360.000000)">
        <g id="Golf-Ball-/-Darken" transform="translate(2100.704739, 403.078603) scale(1, -1) rotate(-90.000000) translate(-2100.704739, -403.078603) translate(2058.626136, 358.373864)">
            <g id="Golf-Ball-Darken">
                <path d="M82.9616455,37.3598783 C82.2190091,34.335813 74.0118273,-5.04862174 30.6220091,4.41826957 C-7.0329,12.6333565 -8.89617273,63.6439 20.7806455,81.9933783 C48.7221,99.2671174 91.1421,70.6826391 82.9616455,37.3598783" id="Fill-1" fill="#959595"></path>
                <g id="Group-135" transform="translate(0.000000, 1.451087)">
                    <g id="Group-5">
                        <mask id="mask-2" fill="white">
                            <use xlink:href="#path-1"></use>
                        </mask>
                        <g id="Clip-4"></g>
                        <path d="M17.9798182,10.1576087 C11.8249091,10.1576087 11.8249091,19.8315217 17.9798182,19.8315217 C24.1347273,19.8315217 24.1347273,10.1576087 17.9798182,10.1576087" id="Fill-3" fill="#919090" mask="url(#mask-2)"></path>
                    </g>
                    <g id="Group-8">
                        <mask id="mask-4" fill="white">
                            <use xlink:href="#path-3"></use>
                        </mask>
                        <g id="Clip-7"></g>
                        <path d="M29.9116364,0.967391304 C23.7567273,0.967391304 23.7567273,10.6413043 29.9116364,10.6413043 C36.0665455,10.6413043 36.0665455,0.967391304 29.9116364,0.967391304" id="Fill-6" fill="#919090" mask="url(#mask-4)"></path>
                    </g>
                    <g id="Group-11">
                        <mask id="mask-6" fill="white">
                            <use xlink:href="#path-5"></use>
                        </mask>
                        <g id="Clip-10"></g>
                        <path d="M29.9116364,11.125 C23.7567273,11.125 23.7567273,20.798913 29.9116364,20.798913 C36.0665455,20.798913 36.0665455,11.125 29.9116364,11.125" id="Fill-9" fill="#919090" mask="url(#mask-6)"></path>
                    </g>
                    <g id="Group-14">
                        <mask id="mask-8" fill="white">
                            <use xlink:href="#path-7"></use>
                        </mask>
                        <g id="Clip-13"></g>
                        <path d="M7.95709091,17.8967391 C1.80218182,17.8967391 1.80218182,27.5706522 7.95709091,27.5706522 C14.112,27.5706522 14.112,17.8967391 7.95709091,17.8967391" id="Fill-12" fill="#919090" mask="url(#mask-8)"></path>
                    </g>
                    <g id="Group-17">
                        <mask id="mask-10" fill="white">
                            <use xlink:href="#path-9"></use>
                        </mask>
                        <g id="Clip-16"></g>
                        <path d="M21.798,22.25 C15.6430909,22.25 15.6430909,31.923913 21.798,31.923913 C27.9529091,31.923913 27.9529091,22.25 21.798,22.25" id="Fill-15" fill="#919090" mask="url(#mask-10)"></path>
                    </g>
                    <g id="Group-20">
                        <mask id="mask-12" fill="white">
                            <use xlink:href="#path-11"></use>
                        </mask>
                        <g id="Clip-19"></g>
                        <path d="M9.38890909,28.5380435 C3.234,28.5380435 3.234,38.2119565 9.38890909,38.2119565 C15.5438182,38.2119565 15.5438182,28.5380435 9.38890909,28.5380435" id="Fill-18" fill="#919090" mask="url(#mask-12)"></path>
                    </g>
                    <g id="Group-23">
                        <mask id="mask-14" fill="white">
                            <use xlink:href="#path-13"></use>
                        </mask>
                        <g id="Clip-22"></g>
                        <path d="M2.70709091,40.1467391 C-3.44781818,40.1467391 -3.44781818,49.8206522 2.70709091,49.8206522 C8.862,49.8206522 8.862,40.1467391 2.70709091,40.1467391" id="Fill-21" fill="#919090" mask="url(#mask-14)"></path>
                    </g>
                    <g id="Group-26">
                        <mask id="mask-16" fill="white">
                            <use xlink:href="#path-15"></use>
                        </mask>
                        <g id="Clip-25"></g>
                        <path d="M17.9798182,35.3097826 C11.8249091,35.3097826 11.8249091,44.9836957 17.9798182,44.9836957 C24.1347273,44.9836957 24.1347273,35.3097826 17.9798182,35.3097826" id="Fill-24" fill="#919090" mask="url(#mask-16)"></path>
                    </g>
                    <g id="Group-29">
                        <mask id="mask-18" fill="white">
                            <use xlink:href="#path-17"></use>
                        </mask>
                        <g id="Clip-28"></g>
                        <path d="M11.298,47.4021739 C5.14309091,47.4021739 5.14309091,57.076087 11.298,57.076087 C17.4529091,57.076087 17.4529091,47.4021739 11.298,47.4021739" id="Fill-27" fill="#919090" mask="url(#mask-18)"></path>
                    </g>
                    <g id="Group-32">
                        <mask id="mask-20" fill="white">
                            <use xlink:href="#path-19"></use>
                        </mask>
                        <g id="Clip-31"></g>
                        <path d="M6.52527273,58.0434783 C0.370363636,58.0434783 0.370363636,67.7173913 6.52527273,67.7173913 C12.6801818,67.7173913 12.6801818,58.0434783 6.52527273,58.0434783" id="Fill-30" fill="#919090" mask="url(#mask-20)"></path>
                    </g>
                    <g id="Group-35">
                        <mask id="mask-22" fill="white">
                            <use xlink:href="#path-21"></use>
                        </mask>
                        <g id="Clip-34"></g>
                        <path d="M17.9798182,58.0434783 C11.8249091,58.0434783 11.8249091,67.7173913 17.9798182,67.7173913 C24.1347273,67.7173913 24.1347273,58.0434783 17.9798182,58.0434783" id="Fill-33" fill="#919090" mask="url(#mask-22)"></path>
                    </g>
                    <g id="Group-38">
                        <mask id="mask-24" fill="white">
                            <use xlink:href="#path-23"></use>
                        </mask>
                        <g id="Clip-37"></g>
                        <path d="M21.6273273,73.2042413 C21.5356909,72.664437 21.2970545,72.1613935 21.0221455,71.6912413 C20.9992364,71.65835 20.9763273,71.6293283 20.9515091,71.5983717 C20.1458727,69.415937 17.4006,68.2666761 15.2796,68.8587196 C12.5916,69.6074804 11.4996,72.2136326 11.9463273,74.8081761 C12.0379636,75.3479804 12.2766,75.8490891 12.5515091,76.3211761 C12.5744182,76.3521326 12.5973273,76.3830891 12.6221455,76.4140457 C13.4277818,78.5964804 16.1730545,79.7457413 18.2940545,79.1536978 C20.9820545,78.404937 22.0721455,75.8007196 21.6273273,73.2042413" id="Fill-36" fill="#919090" mask="url(#mask-24)"></path>
                    </g>
                    <g id="Group-41">
                        <mask id="mask-26" fill="white">
                            <use xlink:href="#path-25"></use>
                        </mask>
                        <g id="Clip-40"></g>
                        <path d="M22.7525455,45.4673913 C16.5976364,45.4673913 16.5976364,55.1413043 22.7525455,55.1413043 C28.9074545,55.1413043 28.9074545,45.4673913 22.7525455,45.4673913" id="Fill-39" fill="#919090" mask="url(#mask-26)"></path>
                    </g>
                    <g id="Group-44">
                        <mask id="mask-28" fill="white">
                            <use xlink:href="#path-27"></use>
                        </mask>
                        <g id="Clip-43"></g>
                        <path d="M28.4798182,66.75 L28.0025455,66.75 C25.4004545,66.75 23.2298182,68.9517826 23.2298182,71.5869565 C23.2298182,74.2240652 25.4004545,76.423913 28.0025455,76.423913 L28.4798182,76.423913 C31.0819091,76.423913 33.2525455,74.2240652 33.2525455,71.5869565 C33.2525455,68.9517826 31.0819091,66.75 28.4798182,66.75" id="Fill-42" fill="#919090" mask="url(#mask-28)"></path>
                    </g>
                    <g id="Group-47">
                        <mask id="mask-30" fill="white">
                            <use xlink:href="#path-29"></use>
                        </mask>
                        <g id="Clip-46"></g>
                        <path d="M30.3889091,79.326087 C24.234,79.326087 24.234,89 30.3889091,89 C36.5438182,89 36.5438182,79.326087 30.3889091,79.326087" id="Fill-45" fill="#919090" mask="url(#mask-30)"></path>
                    </g>
                    <g id="Group-50">
                        <mask id="mask-32" fill="white">
                            <use xlink:href="#path-31"></use>
                        </mask>
                        <g id="Clip-49"></g>
                        <path d="M31.3434545,53.6902174 C25.1885455,53.6902174 25.1885455,63.3641304 31.3434545,63.3641304 C37.4983636,63.3641304 37.4983636,53.6902174 31.3434545,53.6902174" id="Fill-48" fill="#919090" mask="url(#mask-32)"></path>
                    </g>
                    <g id="Group-53">
                        <mask id="mask-34" fill="white">
                            <use xlink:href="#path-33"></use>
                        </mask>
                        <g id="Clip-52"></g>
                        <path d="M33.2859545,37.6942087 C32.2779545,36.6726435 31.0370455,36.2624696 29.7999545,36.330187 C28.4063182,36.1831435 26.9706818,36.5720348 26.0600455,37.6942087 C25.4128636,38.4913391 24.8993182,39.124013 24.6377727,40.1513826 C24.1165909,42.1867739 24.9317727,44.5936435 26.8313182,45.6152087 C29.2215,46.8960348 31.3692273,46.1859696 33.2859545,44.5336652 C35.2714091,42.8252522 35.0136818,39.4432522 33.2859545,37.6942087" id="Fill-51" fill="#919090" mask="url(#mask-34)"></path>
                    </g>
                    <g id="Group-56">
                        <mask id="mask-36" fill="white">
                            <use xlink:href="#path-35"></use>
                        </mask>
                        <g id="Clip-55"></g>
                        <path d="M33.2525455,25.1521739 C27.0976364,25.1521739 27.0976364,34.826087 33.2525455,34.826087 C39.4074545,34.826087 39.4074545,25.1521739 33.2525455,25.1521739" id="Fill-54" fill="#919090" mask="url(#mask-36)"></path>
                    </g>
                    <g id="Group-59">
                        <mask id="mask-38" fill="white">
                            <use xlink:href="#path-37"></use>
                        </mask>
                        <g id="Clip-58"></g>
                        <path d="M39.9343636,15.4782609 C33.7794545,15.4782609 33.7794545,25.1521739 39.9343636,25.1521739 C46.0892727,25.1521739 46.0892727,15.4782609 39.9343636,15.4782609" id="Fill-57" fill="#919090" mask="url(#mask-38)"></path>
                    </g>
                    <g id="Group-62">
                        <mask id="mask-40" fill="white">
                            <use xlink:href="#path-39"></use>
                        </mask>
                        <g id="Clip-61"></g>
                        <path d="M43.2752727,2.41847826 C40.6731818,2.41847826 38.5025455,4.62026087 38.5025455,7.25543478 L38.5025455,7.73913043 C38.5025455,10.3762391 40.6731818,12.576087 43.2752727,12.576087 C45.8773636,12.576087 48.048,10.3762391 48.048,7.73913043 L48.048,7.25543478 C48.048,4.62026087 45.8773636,2.41847826 43.2752727,2.41847826" id="Fill-60" fill="#919090" mask="url(#mask-40)"></path>
                    </g>
                    <g id="Group-65">
                        <mask id="mask-42" fill="white">
                            <use xlink:href="#path-41"></use>
                        </mask>
                        <g id="Clip-64"></g>
                        <path d="M54.7298182,0.483695652 C48.5749091,0.483695652 48.5749091,10.1576087 54.7298182,10.1576087 C60.8847273,10.1576087 60.8847273,0.483695652 54.7298182,0.483695652" id="Fill-63" fill="#919090" mask="url(#mask-42)"></path>
                    </g>
                    <g id="Group-68">
                        <mask id="mask-44" fill="white">
                            <use xlink:href="#path-43"></use>
                        </mask>
                        <g id="Clip-67"></g>
                        <path d="M51.3889091,13.5434783 C45.234,13.5434783 45.234,23.2173913 51.3889091,23.2173913 C57.5438182,23.2173913 57.5438182,13.5434783 51.3889091,13.5434783" id="Fill-66" fill="#919090" mask="url(#mask-44)"></path>
                    </g>
                    <g id="Group-71">
                        <mask id="mask-46" fill="white">
                            <use xlink:href="#path-45"></use>
                        </mask>
                        <g id="Clip-70"></g>
                        <path d="M46.6161818,25.1521739 C40.4612727,25.1521739 40.4612727,34.826087 46.6161818,34.826087 C52.7710909,34.826087 52.7710909,25.1521739 46.6161818,25.1521739" id="Fill-69" fill="#919090" mask="url(#mask-46)"></path>
                    </g>
                    <g id="Group-74">
                        <mask id="mask-48" fill="white">
                            <use xlink:href="#path-47"></use>
                        </mask>
                        <g id="Clip-73"></g>
                        <path d="M47.8773273,39.3455457 C47.8105091,38.888937 47.6043273,38.4265239 47.4076909,38.0047413 C47.4057818,37.9699152 47.4076909,37.9525022 47.4000545,37.8944587 C47.0182364,35.2825022 43.8033273,33.8817196 41.5296,34.5163283 C40.3364182,34.8491109 39.3016909,35.65785 38.6774182,36.7374587 C37.9691455,37.9641109 37.9977818,39.1172413 38.1963273,40.4657848 C38.2612364,40.9204587 38.4674182,41.3867413 38.6640545,41.8046543 C38.6678727,41.84335 38.6640545,41.8588283 38.6736,41.9168717 C39.0554182,44.530763 42.2684182,45.9276761 44.5440545,45.2950022 C45.7372364,44.9622196 46.7719636,44.1534804 47.3962364,43.071937 C48.1045091,41.8472196 48.0758727,40.6940891 47.8773273,39.3455457" id="Fill-72" fill="#919090" mask="url(#mask-48)"></path>
                    </g>
                    <g id="Group-77">
                        <mask id="mask-50" fill="white">
                            <use xlink:href="#path-49"></use>
                        </mask>
                        <g id="Clip-76"></g>
                        <path d="M38.9798182,45.4673913 C32.8249091,45.4673913 32.8249091,55.1413043 38.9798182,55.1413043 C45.1347273,55.1413043 45.1347273,45.4673913 38.9798182,45.4673913" id="Fill-75" fill="#919090" mask="url(#mask-50)"></path>
                    </g>
                    <g id="Group-80">
                        <mask id="mask-52" fill="white">
                            <use xlink:href="#path-51"></use>
                        </mask>
                        <g id="Clip-79"></g>
                        <path d="M45.0136909,64.4977196 C44.5841455,62.0231326 42.2283273,60.6088065 39.9336,60.461763 C37.3353273,60.2992413 35.1608727,62.7873717 35.1608727,65.2987196 C35.1608727,66.5872848 35.6476909,67.680437 36.4189636,68.5065891 C37.5262364,70.1550239 39.8343273,70.963763 41.6804182,70.4471761 C44.3646,69.6984152 45.4642364,67.092263 45.0136909,64.4977196" id="Fill-78" fill="#919090" mask="url(#mask-52)"></path>
                    </g>
                    <g id="Group-83">
                        <mask id="mask-54" fill="white">
                            <use xlink:href="#path-53"></use>
                        </mask>
                        <g id="Clip-82"></g>
                        <path d="M39.9343636,72.0706522 C33.7794545,72.0706522 33.7794545,81.7445652 39.9343636,81.7445652 C46.0892727,81.7445652 46.0892727,72.0706522 39.9343636,72.0706522" id="Fill-81" fill="#919090" mask="url(#mask-54)"></path>
                    </g>
                    <g id="Group-86">
                        <mask id="mask-56" fill="white">
                            <use xlink:href="#path-55"></use>
                        </mask>
                        <g id="Clip-85"></g>
                        <path d="M48.048,78.3586957 C41.8930909,78.3586957 41.8930909,88.0326087 48.048,88.0326087 C54.2029091,88.0326087 54.2029091,78.3586957 48.048,78.3586957" id="Fill-84" fill="#919090" mask="url(#mask-56)"></path>
                    </g>
                    <g id="Group-89">
                        <mask id="mask-58" fill="white">
                            <use xlink:href="#path-57"></use>
                        </mask>
                        <g id="Clip-88"></g>
                        <path d="M51.3889091,66.75 C45.234,66.75 45.234,76.423913 51.3889091,76.423913 C57.5438182,76.423913 57.5438182,66.75 51.3889091,66.75" id="Fill-87" fill="#919090" mask="url(#mask-58)"></path>
                    </g>
                    <g id="Group-92">
                        <mask id="mask-60" fill="white">
                            <use xlink:href="#path-59"></use>
                        </mask>
                        <g id="Clip-91"></g>
                        <path d="M60.4570909,74.4891304 C57.8569091,74.4891304 55.6843636,76.690913 55.6843636,79.326087 L55.6843636,79.8097826 C55.6843636,82.4468913 57.8569091,84.6467391 60.4570909,84.6467391 C63.0572727,84.6467391 65.2298182,82.4468913 65.2298182,79.8097826 L65.2298182,79.326087 C65.2298182,76.690913 63.0572727,74.4891304 60.4570909,74.4891304" id="Fill-90" fill="#919090" mask="url(#mask-60)"></path>
                    </g>
                    <g id="Group-95">
                        <mask id="mask-62" fill="white">
                            <use xlink:href="#path-61"></use>
                        </mask>
                        <g id="Clip-94"></g>
                        <path d="M64.7525455,63.3641304 C58.5976364,63.3641304 58.5976364,73.0380435 64.7525455,73.0380435 C70.9074545,73.0380435 70.9074545,63.3641304 64.7525455,63.3641304" id="Fill-93" fill="#919090" mask="url(#mask-62)"></path>
                    </g>
                    <g id="Group-98">
                        <mask id="mask-64" fill="white">
                            <use xlink:href="#path-63"></use>
                        </mask>
                        <g id="Clip-97"></g>
                        <path d="M53.4787909,54.3213435 C53.2859727,54.0833652 53.0721545,53.8686043 52.8297,53.6731913 C52.8277909,53.6712565 52.8258818,53.6712565 52.8239727,53.667387 C52.6025182,53.4913217 52.3562455,53.3384739 52.0908818,53.2088435 C52.0641545,53.1953 52.0431545,53.1759522 52.0145182,53.1624087 C51.7720636,53.0482565 51.5028818,52.9650609 51.2260636,52.8934739 C51.1668818,52.8779957 51.1172455,52.8509087 51.0561545,52.8373652 C50.7144273,52.7638435 50.3497909,52.723213 49.9565182,52.723213 C49.6052455,52.723213 49.2787909,52.7638435 48.9676091,52.8238217 C48.8702455,52.8412348 48.7843364,52.8702565 48.6907909,52.8934739 C48.4788818,52.945713 48.2746091,53.0114957 48.0817909,53.0927565 C47.9920636,53.1295174 47.9042455,53.168213 47.8202455,53.2107783 C47.6293364,53.3055826 47.4517909,53.4139304 47.2837909,53.5319522 C47.2227,53.5745174 47.1577909,53.613213 47.1005182,53.6596478 C46.8847909,53.8279739 46.6862455,54.0156478 46.5125182,54.2188 C46.4762455,54.2613652 46.4476091,54.3097348 46.4132455,54.3542348 C46.2815182,54.5186913 46.1612455,54.690887 46.0543364,54.8727565 C45.9989727,54.9675609 45.9512455,55.0662348 45.9016091,55.1649087 C45.8347909,55.304213 45.7717909,55.4435174 45.7164273,55.5866913 C45.6687,55.7085826 45.6247909,55.8285391 45.5866091,55.9543 C45.5522455,56.0742565 45.5236091,56.1961478 45.4968818,56.3161043 C45.3632455,56.906213 45.3250636,57.5137348 45.3861545,58.1193217 C45.3880636,58.1464087 45.3880636,58.1696261 45.3918818,58.1947783 C45.4167,58.4172783 45.4567909,58.6339739 45.5083364,58.8487348 C45.5140636,58.8680826 45.5178818,58.8893652 45.5236091,58.908713 C45.7527,59.8277348 46.2166091,60.6654957 46.9229727,61.2943 C47.6904273,62.2384739 48.8568818,62.8808217 50.4337909,62.8808217 C55.2981545,62.8808217 56.3023364,56.8578435 53.4787909,54.3213435" id="Fill-96" fill="#919090" mask="url(#mask-64)"></path>
                    </g>
                    <g id="Group-101">
                        <mask id="mask-66" fill="white">
                            <use xlink:href="#path-65"></use>
                        </mask>
                        <g id="Clip-100"></g>
                        <path d="M53.298,42.0815217 C47.1430909,42.0815217 47.1430909,51.7554348 53.298,51.7554348 C59.4529091,51.7554348 59.4529091,42.0815217 53.298,42.0815217" id="Fill-99" fill="#919090" mask="url(#mask-66)"></path>
                    </g>
                    <g id="Group-104">
                        <mask id="mask-68" fill="white">
                            <use xlink:href="#path-67"></use>
                        </mask>
                        <g id="Clip-103"></g>
                        <path d="M55.6843636,30.9565217 C49.5294545,30.9565217 49.5294545,40.6304348 55.6843636,40.6304348 C61.8392727,40.6304348 61.8392727,30.9565217 55.6843636,30.9565217" id="Fill-102" fill="#919090" mask="url(#mask-68)"></path>
                    </g>
                    <g id="Group-107">
                        <mask id="mask-70" fill="white">
                            <use xlink:href="#path-69"></use>
                        </mask>
                        <g id="Clip-106"></g>
                        <path d="M60.9343636,20.3152174 C58.3341818,20.3152174 56.1616364,22.517 56.1616364,25.1521739 L56.1616364,25.6358696 C56.1616364,28.2729783 58.3341818,30.4728261 60.9343636,30.4728261 C63.5345455,30.4728261 65.7070909,28.2729783 65.7070909,25.6358696 L65.7070909,25.1521739 C65.7070909,22.517 63.5345455,20.3152174 60.9343636,20.3152174" id="Fill-105" fill="#919090" mask="url(#mask-70)"></path>
                    </g>
                    <g id="Group-110">
                        <mask id="mask-72" fill="white">
                            <use xlink:href="#path-71"></use>
                        </mask>
                        <g id="Clip-109"></g>
                        <path d="M62.3661818,7.25543478 C56.2112727,7.25543478 56.2112727,16.9293478 62.3661818,16.9293478 C68.5210909,16.9293478 68.5210909,7.25543478 62.3661818,7.25543478" id="Fill-108" fill="#919090" mask="url(#mask-72)"></path>
                    </g>
                    <g id="Group-113">
                        <mask id="mask-74" fill="white">
                            <use xlink:href="#path-73"></use>
                        </mask>
                        <g id="Clip-112"></g>
                        <path d="M70.4798182,14.0271739 L70.0025455,14.0271739 C67.4023636,14.0271739 65.2298182,16.2289565 65.2298182,18.8641304 C65.2298182,21.5012391 67.4023636,23.701087 70.0025455,23.701087 L70.4798182,23.701087 C73.08,23.701087 75.2525455,21.5012391 75.2525455,18.8641304 C75.2525455,16.2289565 73.08,14.0271739 70.4798182,14.0271739" id="Fill-111" fill="#919090" mask="url(#mask-74)"></path>
                    </g>
                    <g id="Group-116">
                        <mask id="mask-76" fill="white">
                            <use xlink:href="#path-75"></use>
                        </mask>
                        <g id="Clip-115"></g>
                        <path d="M68.0934545,29.5054348 C61.9385455,29.5054348 61.9385455,39.1793478 68.0934545,39.1793478 C74.2483636,39.1793478 74.2483636,29.5054348 68.0934545,29.5054348" id="Fill-114" fill="#919090" mask="url(#mask-76)"></path>
                    </g>
                    <g id="Group-119">
                        <mask id="mask-78" fill="white">
                            <use xlink:href="#path-77"></use>
                        </mask>
                        <g id="Clip-118"></g>
                        <path d="M77.1616364,22.25 C71.0067273,22.25 71.0067273,31.923913 77.1616364,31.923913 C83.3165455,31.923913 83.3165455,22.25 77.1616364,22.25" id="Fill-117" fill="#919090" mask="url(#mask-78)"></path>
                    </g>
                    <g id="Group-122">
                        <mask id="mask-80" fill="white">
                            <use xlink:href="#path-79"></use>
                        </mask>
                        <g id="Clip-121"></g>
                        <path d="M65.7070909,40.1467391 C59.5521818,40.1467391 59.5521818,49.8206522 65.7070909,49.8206522 C71.862,49.8206522 71.862,40.1467391 65.7070909,40.1467391" id="Fill-120" fill="#919090" mask="url(#mask-80)"></path>
                    </g>
                    <g id="Group-125">
                        <mask id="mask-82" fill="white">
                            <use xlink:href="#path-81"></use>
                        </mask>
                        <g id="Clip-124"></g>
                        <path d="M64.9705636,52.0955696 C62.5784727,50.8108739 60.4326545,51.5228739 58.5140182,53.1732435 C56.5285636,54.8797217 56.7862909,58.2636565 58.5140182,60.0127 C59.5220182,61.0362 60.7648364,61.4483087 62.0000182,61.3805913 C63.3936545,61.5257 64.8292909,61.1368087 65.7399273,60.0127 C66.3871091,59.2194391 66.9006545,58.5848304 67.1622,57.5555261 C67.6833818,55.5220696 66.8682,53.1113304 64.9705636,52.0955696" id="Fill-123" fill="#919090" mask="url(#mask-82)"></path>
                    </g>
                    <g id="Group-128">
                        <mask id="mask-84" fill="white">
                            <use xlink:href="#path-83"></use>
                        </mask>
                        <g id="Clip-127"></g>
                        <path d="M77.9426455,50.7654065 C76.5642818,48.3856239 73.7369182,47.8496891 71.4116455,49.0318413 C70.7511,49.3665587 70.2089182,49.6683848 69.6571909,50.2294717 C68.0287364,51.8779065 68.0020091,54.0874283 68.9126455,56.0899283 C69.6724636,57.7712543 71.6445545,58.5200152 73.3436455,58.5277543 C74.6800091,58.5354935 75.8999182,57.9453848 76.7723727,57.0186239 C78.6318273,55.6333196 79.0842818,52.7446891 77.9426455,50.7654065" id="Fill-126" fill="#919090" mask="url(#mask-84)"></path>
                    </g>
                    <g id="Group-131">
                        <mask id="mask-86" fill="white">
                            <use xlink:href="#path-85"></use>
                        </mask>
                        <g id="Clip-130"></g>
                        <path d="M84.1510091,38.86185 C83.9352818,38.3297848 83.7042818,37.8538283 83.4274636,37.4185022 C82.7191909,35.6385022 81.1881,34.3421978 79.0709182,34.3421978 C76.9518273,34.3421978 74.7353727,36.0177196 74.3459182,38.1885457 C73.5211909,39.6570457 73.6071,41.5376543 74.3783727,43.0371109 C74.4184636,43.116437 74.4814636,43.1628717 74.5253727,43.2383283 C74.7468273,43.6543065 75.0064636,44.0528717 75.3596455,44.4088717 C76.9193727,45.9895891 79.5539182,46.4771543 81.4801909,45.2911326 C81.5431909,45.252437 81.5871,45.2021326 81.6481909,45.1615022 C83.8226455,44.0373935 85.1361,41.3112848 84.1510091,38.86185" id="Fill-129" fill="#919090" mask="url(#mask-86)"></path>
                    </g>
                    <g id="Group-134">
                        <mask id="mask-88" fill="white">
                            <use xlink:href="#path-87"></use>
                        </mask>
                        <g id="Clip-133"></g>
                        <path d="M75.7298182,60.4619565 C69.5749091,60.4619565 69.5749091,70.1358696 75.7298182,70.1358696 C81.8847273,70.1358696 81.8847273,60.4619565 75.7298182,60.4619565" id="Fill-132" fill="#919090" mask="url(#mask-88)"></path>
                    </g>
                </g>
                <path d="M82.9616455,37.3598783 C82.2190091,34.335813 74.0118273,-5.04862174 30.6220091,4.41826957 C-7.0329,12.6333565 -8.89617273,63.6439 20.7806455,81.9933783 C48.7221,99.2671174 91.1421,70.6826391 82.9616455,37.3598783" id="Fill-1-Copy" stroke="#000000"></path>
            </g>
        </g>
    </g>
</svg>